<svg xmlns="http://www.w3.org/2000/svg" viewBox="0 0 64 64" role="img" aria-labelledby="title">
  <title>Quackdas logo</title>
  <rect width="64" height="64" fill="#f8f6f1"/>
  <path d="M11 39c0-10.2 8.4-18.5 18.8-18.5 4.9 0 9.5 1.9 13 5.2 6.3.7 10.2 4.2 10.2 8.5 0 4.7-4.7 8.6-11.9 8.8-3.5 2.8-7.8 4.5-12.4 4.5C19.3 47.5 11 42.8 11 39Z" fill="#c17a5c"/>
  <path d="M41.5 23c2.2-4.5 6.3-7.8 11.5-9.2-1.3 3.6-1.2 7.4.3 11.2" fill="none" stroke="#2a2520" stroke-width="2.2" stroke-linecap="round"/>
  <circle cx="39.5" cy="30" r="2.2" fill="#2a2520"/>
  <path d="M47 34.6c3 .8 5.2 2.5 6 5.7-4.4-.6-8.1-2.1-11.1-4.8" fill="none" stroke="#2a2520" stroke-width="2.2" stroke-linecap="round"/>
  <path d="M20.5 36.6c1.6 6.3 6.6 10.6 12.6 10.6 1.7 0 3.4-.3 4.9-.9-4.1-1.8-6.8-5.2-7.6-9.6" fill="#e8d5cc"/>
</svg>
